<svg width="23" height="18" viewBox="0 0 23 18" fill="none" xmlns="http://www.w3.org/2000/svg">
<path d="M15.41 7.33502C15.41 7.33502 14.1633 11.3017 14.05 11.585C13.9933 11.245 13.0867 4.16168 13.0867 4.16168C10.9333 4.16168 9.80001 5.69168 9.17668 7.27835C9.17668 7.27835 7.64668 11.245 7.53334 11.585C7.53334 11.3017 7.30668 7.33502 7.30668 7.33502C7.19334 5.35168 5.38001 4.16168 3.90668 4.16168L5.66334 14.8717C7.93001 14.8717 9.12001 13.3417 9.74334 11.755C9.74334 11.755 11.1033 8.24168 11.16 8.12835C11.16 8.29835 12.1233 14.9283 12.1233 14.9283C14.39 14.9283 15.58 13.5117 16.26 11.925L19.4333 4.16168C17.2233 4.16168 16.0333 5.69168 15.41 7.33502Z" fill="white"/>
</svg>
