<svg width="23" height="18" viewBox="0 0 23 18" fill="none" xmlns="http://www.w3.org/2000/svg">
<path d="M18.4133 6.20165C17.79 4.84165 16.8833 3.65165 15.6367 2.80165C14.39 1.95165 12.9166 1.44165 11.33 1.44165C10.1967 1.44165 9.17665 1.72498 8.38332 2.00832C7.02332 2.57498 5.83332 3.53832 4.98332 4.84165C4.13332 6.14498 3.56665 7.56165 3.56665 9.20498C3.56665 10.2817 3.79332 11.3583 4.18998 12.1517C4.81332 13.5117 5.71998 14.7016 6.96665 15.5517C8.21332 16.4017 9.68665 16.9116 11.33 16.9116C12.4067 16.9116 13.4833 16.6283 14.2767 16.345C15.6367 15.7217 16.8266 14.815 17.6767 13.5117C18.5267 12.2083 19.0366 10.7916 19.0366 9.20498C19.0366 8.07165 18.8667 7.05165 18.4133 6.20165ZM15.0133 13.8517C14.8433 13.0583 14.56 11.8117 13.9933 10.1683C14.22 10.1683 14.6166 10.055 14.8433 10.055C15.5233 10.055 16.09 10.1683 16.6 10.225C16.77 10.225 16.94 10.3383 17.11 10.3383C16.94 11.075 16.6567 11.6983 16.26 12.3783C15.9767 12.8883 15.58 13.455 15.0133 13.8517ZM17.28 8.69498C17.11 8.69498 16.94 8.58165 16.6567 8.58165C16.1467 8.52498 15.4667 8.41165 14.73 8.41165C14.2767 8.41165 13.88 8.41165 13.4833 8.52498V8.41165C13.37 8.24165 13.3133 7.95832 13.2 7.84498C14.3333 7.33498 15.1833 6.71165 15.6933 6.31498C15.92 6.03165 16.1467 5.86165 16.3167 5.74832C16.8267 6.54165 17.1667 7.56165 17.28 8.69498ZM14.39 5.12498C13.9367 5.40832 13.2566 5.97498 12.35 6.25832C11.84 5.35165 11.33 4.55832 10.9333 3.99165C10.7067 3.70832 10.5367 3.48165 10.3667 3.25498C10.5933 3.14165 10.99 3.14165 11.33 3.14165C12.7466 3.14165 14.05 3.65165 15.07 4.38832C14.9 4.67165 14.73 4.84165 14.39 5.12498ZM8.49665 3.93498C8.83665 4.44498 9.62998 5.57832 10.48 6.88165C8.32665 7.39165 6.39998 7.50498 5.54998 7.56165C5.83332 6.76832 6.17332 6.14498 6.68332 5.52165C7.13665 4.84165 7.81665 4.27498 8.49665 3.93498ZM7.64665 9.20498C8.77998 9.09165 10.0267 8.86498 11.33 8.52498C11.3867 8.69498 11.5 8.86498 11.5567 9.03498C10.7067 9.31832 9.96998 9.71498 9.34665 10.1683C8.32665 10.8483 7.64665 11.585 7.13665 12.3217C6.96665 12.4917 6.79665 12.775 6.62665 12.945C5.88998 11.9816 5.43665 10.735 5.37998 9.43165C5.77665 9.37498 6.62665 9.26165 7.64665 9.20498ZM8.94998 12.775C9.62998 12.095 10.7633 11.245 12.2933 10.6217C12.9733 12.4917 13.3133 14.0217 13.4833 14.7583C12.8033 15.0417 12.1233 15.0983 11.33 15.0983C10.0833 15.0983 8.83665 14.645 7.81665 13.965C7.98665 13.795 8.32665 13.285 8.94998 12.775Z" fill="white"/>
</svg>
