<svg width="23" height="18" viewBox="0 0 23 18" fill="none" xmlns="http://www.w3.org/2000/svg">
<path d="M17.8467 6.315C17.8467 6.42833 17.8467 6.59833 17.8467 6.71166C17.8467 10.9617 14.6167 15.835 8.72334 15.835C6.91 15.835 5.21 15.325 3.79333 14.4183C4.02 14.4183 4.30334 14.475 4.58667 14.475C6.11667 14.475 7.47667 13.965 8.55334 13.115C7.13667 13.115 5.94667 12.1517 5.55 10.905C5.72 10.9617 5.94667 10.9617 6.17334 10.9617C6.45667 10.9617 6.74 10.905 7.02334 10.8483C5.55 10.5083 4.41667 9.205 4.41667 7.675C4.41667 7.675 4.41667 7.675 4.41667 7.61833C4.87 7.845 5.32334 8.015 5.89 8.015C5.04 7.44833 4.47333 6.485 4.47333 5.35166C4.47333 4.785 4.64334 4.21833 4.92667 3.765C6.51334 5.69166 8.89334 6.995 11.5567 7.10833C11.5 6.88166 11.5 6.655 11.5 6.37166C11.5 4.615 12.9167 3.14166 14.73 3.14166C15.6367 3.14166 16.4867 3.53833 17.0533 4.16166C17.79 3.99166 18.47 3.765 19.0933 3.36833C18.8667 4.105 18.3567 4.72833 17.6767 5.125C18.2433 5.06833 18.8667 4.89833 19.4333 4.67166C18.98 5.295 18.47 5.86166 17.8467 6.315Z" fill="white"/>
</svg>
