<svg width="23" height="18" viewBox="0 0 23 18" fill="none" xmlns="http://www.w3.org/2000/svg">
<g clip-path="url(#clip0_3_41)">
<path d="M17.1667 2.00836H5.26665C4.30332 2.00836 3.56665 2.74503 3.56665 3.70836V15.6084C3.56665 16.5717 4.30332 17.3084 5.26665 17.3084H17.1667C18.13 17.3084 18.8667 16.5717 18.8667 15.6084V3.70836C18.8667 2.74503 18.13 2.00836 17.1667 2.00836ZM11.2167 14.3617C13.8233 14.3617 15.92 12.265 15.92 9.65836C15.92 9.37503 15.8633 9.0917 15.8067 8.80836H17.1667V14.9284C17.1667 15.2684 16.8833 15.495 16.6 15.495H5.83332C5.49332 15.495 5.26665 15.2117 5.26665 14.9284V8.80836H6.56998C6.51332 9.0917 6.45665 9.37503 6.45665 9.65836C6.51332 12.265 8.60998 14.3617 11.2167 14.3617ZM8.26998 9.65836C8.26998 8.01503 9.57332 6.7117 11.2167 6.7117C12.86 6.7117 14.1633 8.01503 14.1633 9.65836C14.1633 11.3017 12.86 12.605 11.2167 12.605C9.57332 12.605 8.26998 11.245 8.26998 9.65836ZM16.6 6.25836H15.24C14.9 6.25836 14.6733 5.97503 14.6733 5.6917V4.27503C14.6733 3.93503 14.9567 3.70836 15.24 3.70836H16.6C16.94 3.70836 17.1667 3.9917 17.1667 4.27503V5.63503C17.1667 5.97503 16.8833 6.25836 16.6 6.25836Z" fill="white"/>
</g>
<defs>
<clipPath id="clip0_3_41">
<rect width="17" height="17" fill="white" transform="translate(3 0.875)"/>
</clipPath>
</defs>
</svg>
