<svg width="23" height="18" viewBox="0 0 23 18" fill="none" xmlns="http://www.w3.org/2000/svg">
<path d="M9.85667 8.75165C9.85667 8.75165 11.4433 8.63831 11.4433 6.65498C11.5 4.67165 10.14 3.70831 8.49667 3.70831H3V14.7016H8.49667C8.49667 14.7016 11.84 14.815 11.84 11.4716C11.84 11.4716 12.01 8.75165 9.85667 8.75165ZM5.43667 5.63498H8.49667C8.49667 5.63498 9.23333 5.63498 9.23333 6.76831C9.23333 7.90165 8.78 8.07165 8.27 8.07165H5.43667V5.63498ZM8.32667 12.7183H5.43667V9.77165H8.49667C8.49667 9.77165 9.63 9.77165 9.63 11.3016C9.57333 12.605 8.78 12.7183 8.32667 12.7183ZM16.3167 6.48498C12.2367 6.48498 12.2367 10.735 12.2367 10.735C12.2367 10.735 11.9533 14.9283 16.3167 14.9283C16.3167 14.9283 19.9433 15.155 19.9433 11.9816H18.0733C18.0733 11.9816 18.13 13.1716 16.3733 13.1716C16.3733 13.1716 14.5033 13.285 14.5033 11.245H19.9433C19.9433 11.245 20.5667 6.48498 16.3167 6.48498ZM17.96 9.82831H14.5033C14.5033 9.82831 14.73 8.12831 16.3733 8.12831C18.0167 8.12831 17.96 9.82831 17.96 9.82831ZM18.4133 4.33165H14.05V5.69165H18.4133V4.33165Z" fill="white"/>
</svg>
