<svg width="80" height="48" viewBox="0 0 80 48" fill="none" xmlns="http://www.w3.org/2000/svg">
<path fill-rule="evenodd" clip-rule="evenodd" d="M56.6667 16.6667V10.6667C56.6667 4.99999 52.3333 0.666656 46.6667 0.666656H10C4.33333 0.666656 0 4.99999 0 10.6667V37.3333C0 43 4.33333 47.3333 10 47.3333H46.6667C52.3333 47.3333 56.6667 43 56.6667 37.3333V31.3333L80 44V3.99999L56.6667 16.6667ZM50 37.3333C50 39.3333 48.6667 40.6667 46.6667 40.6667H10C8 40.6667 6.66667 39.3333 6.66667 37.3333V10.6667C6.66667 8.66666 8 7.33332 10 7.33332H46.6667C48.6667 7.33332 50 8.66666 50 10.6667V37.3333ZM73.3333 32.6667L57.3333 24L73.3333 15.3333V32.6667Z" fill="black"/>
</svg>
