<svg width="74" height="74" viewBox="0 0 74 74" fill="none" xmlns="http://www.w3.org/2000/svg">
<path fill-rule="evenodd" clip-rule="evenodd" d="M63.6667 0.333344H10.3333C4.66667 0.333344 0.333336 4.66668 0.333336 10.3333V63.6667C0.333336 69.3333 4.66667 73.6667 10.3333 73.6667H63.6667C69.3333 73.6667 73.6667 69.3333 73.6667 63.6667V10.3333C73.6667 4.66668 69.3333 0.333344 63.6667 0.333344ZM23.6667 67H10.3333C8.33333 67 7 65.6667 7 63.6667V27H23.6667V67ZM67 63.6667C67 65.6667 65.6667 67 63.6667 67H30.3333V27H67V63.6667ZM67 20.3333H7V10.3333C7 8.33334 8.33333 7.00001 10.3333 7.00001H63.6667C65.6667 7.00001 67 8.33334 67 10.3333V20.3333Z" fill="black"/>
</svg>
